<svg xmlns="http://www.w3.org/2000/svg" viewBox="0 0 48 48" fill="none">
  <rect width="48" height="48" rx="12" fill="url(#gp)"/>
  <defs><linearGradient id="gp" x1="0" y1="0" x2="48" y2="48"><stop stop-color="#f0a500"/><stop offset="1" stop-color="#d48900"/></linearGradient></defs>
  <path d="M18 14c-4.4 0-8 3.6-8 8s3.6 8 8 8l2-2.2a15 15 0 006.6 6.6l2.2-2a1 1 0 011 .2c1.1.4 2.3.6 3.6.6a1 1 0 011 1v3.5a1 1 0 01-1 1A17 17 0 0114 14a1 1 0 011-1h3.5a1 1 0 011 1c0 1.2.2 2.4.6 3.6a1 1 0 01-.3 1l-2.2 2.2" fill="none" stroke="#fff" stroke-width="2" stroke-linecap="round" stroke-linejoin="round"/>
  <path d="M19.6 24.8a15 15 0 006.6 6.6l2.2-2.2a1 1 0 011-.2c1.1.4 2.3.6 3.6.6a1 1 0 011 1V34a1 1 0 01-1 1A17 17 0 0113 14a1 1 0 011-1h3.5a1 1 0 011 1c0 1.2.2 2.4.6 3.6a1 1 0 01-.2 1l-2.2 2.2" fill="none" stroke="#fff" stroke-width="2" stroke-linecap="round"/>
</svg>
