<svg xmlns="http://www.w3.org/2000/svg" viewBox="0 0 64 64" fill="none">
  <rect width="64" height="64" rx="16" fill="url(#g1)"/>
  <defs><linearGradient id="g1" x1="0" y1="0" x2="64" y2="64"><stop stop-color="#003366"/><stop offset="1" stop-color="#0066cc"/></linearGradient></defs>
  <path d="M32 18c-4.4 0-8 3.6-8 8s3.6 8 8 8 8-3.6 8-8-3.6-8-8-8zm0 12c-2.2 0-4-1.8-4-4s1.8-4 4-4 4 1.8 4 4-1.8 4-4 4z" fill="#fff"/>
  <path d="M32 36c-6.6 0-12 2.7-12 6v4h24v-4c0-3.3-5.4-6-12-6z" fill="#fff" opacity=".9"/>
  <circle cx="47" cy="20" r="6" fill="#fbb03b"/>
  <path d="M47 17v6M44 20h6" stroke="#003366" stroke-width="2" stroke-linecap="round"/>
</svg>
