<svg width="430" height="430" viewBox="0 0 430 430" xmlns="http://www.w3.org/2000/svg" xmlns:xlink="http://www.w3.org/1999/xlink" overflow="hidden"><defs><clipPath id="a"><path d="M0 0 430 0 430 430 0 430Z"/></clipPath><clipPath id="e"><path d="M0 0 430 0 430 430 0 430Z"/></clipPath><clipPath id="d"><path d="M0 0 430 0 430 430 0 430Z"/></clipPath><clipPath id="c"><path d="M0 0 430 0 430 430 0 430Z"/></clipPath><clipPath id="b"><path d="M0 0 430 0 430 430 0 430Z"/></clipPath></defs><g clip-path="url(#a)"><g display="none" clip-path="url(#b)"><g display="none"><path d=""/><path d=""/><path d=""/><path d=""/></g><path d="" fill="none" display="none"/><path d="" fill="none" display="none"/><g display="none"><path d=""/><path d="" fill="none"/></g><path d="" fill="none" display="none"/></g><g display="none" clip-path="url(#c)"><g display="none"><path d=""/><path d=""/><path d=""/><path d=""/></g><path d="" fill="none" display="none"/><path d="" fill="none" display="none"/><g display="none"><path d=""/><path d="" fill="none"/></g><path d="" fill="none" display="none"/></g><g clip-path="url(#d)"><g><path d="M247.87 380.752C280.554 374.251 310.576 358.204 334.14 334.64 382.336 286.456 396.754 213.981 370.669 151.02 362.2 130.578 349.788 112.004 334.14 96.36 285.953 48.1713 213.482 33.7555 150.521 59.835 64.5496 95.4476 23.7257 194.011 59.3382 279.982 76.4391 321.265 109.238 354.064 150.521 371.165 181.309 383.917 215.186 387.254 247.87 380.752Z" fill="#4BB3FD"/><path d="M27.324 166.255C49.8475 162.56 71.3856 154.327 90.632 142.058 7.58417 184.098-93.8193 150.854-135.859 67.8061-174.952-9.42058-149.19-103.705-76.258-150.322-159.25-108.185-192.369-6.7472-150.232 76.2449-116.982 141.732-45.1517 178.146 27.324 166.255Z" fill="#4BB3FD" opacity="0.5" transform="translate(215.003 215.5)"/><path d="M241.863 350.554C268.574 345.241 293.11 332.127 312.368 312.87 351.754 273.489 363.538 214.259 342.222 162.803 313.117 92.5423 232.565 59.1784 162.304 88.282 110.848 109.594 77.2987 159.805 77.301 215.5 77.2959 291.545 138.939 353.196 214.984 353.201 224.009 353.202 233.012 352.315 241.863 350.554Z" fill="#EBE6EF"/><path d="M59.628 127.578C78.5719 122.824 96.288 114.095 111.6 101.97 42.1378 132.959-39.2939 101.77-70.2827 32.3078-81.539 7.07658-84.9464-20.9569-80.062-48.15-74.1311-81.1651-56.355-110.881-30.07-131.72-99.5091-100.69-130.646-19.2442-99.6163 50.1949-97.2797 55.424-94.619 60.5022-91.65 65.4-71.1692 99.1869-37.1617 122.548 1.72401 129.543 20.9463 133.002 40.6845 132.332 59.628 127.578Z" fill="#EBE6EF" opacity="0.5" transform="translate(188.964 221.471)"/></g><path d="M0-34.5 0 34.5" stroke="#F24C00" stroke-width="7" stroke-linecap="round" stroke-linejoin="round" fill="none" transform="translate(215 177.76)"/><path d="M18.055-18.055-18.055 18.055" stroke="#3A3347" stroke-width="7" stroke-linecap="round" stroke-linejoin="round" fill="none" transform="translate(233.055 197.445)"/><g><path d="M215 227.54C221.65 227.54 227.04 222.15 227.04 215.5 227.04 208.85 221.65 203.46 215 203.46 208.35 203.46 202.96 208.85 202.96 215.5 202.96 222.15 208.35 227.54 215 227.54Z" fill="#3A3347"/><path d="M215 227.54C221.65 227.54 227.04 222.15 227.04 215.5 227.04 208.85 221.65 203.46 215 203.46 208.35 203.46 202.96 208.85 202.96 215.5 202.96 222.15 208.35 227.54 215 227.54Z" stroke="#3A3347" fill="none"/></g><path d="M-72.34 72.34-85.1 85.1M-102.31 0-120.35 0M-72.34-72.34-85.1-85.1M0-102.31 0-120.35M72.34-72.34 85.1-85.1M102.31 0 120.35 0M72.34 72.34 85.1 85.1M0 102.31 0 120.35" stroke="#3A3347" stroke-width="7" stroke-linecap="round" stroke-linejoin="round" fill="none" transform="translate(215 215.5)"/></g><g display="none" clip-path="url(#e)"><g display="none"><path d=""/><path d=""/><path d=""/><path d=""/></g><path d="" fill="none" display="none"/><path d="" fill="none" display="none"/><g display="none"><path d=""/><path d="" fill="none"/></g><path d="" fill="none" display="none"/></g></g></svg>